<svg width="30" height="26" viewBox="0 0 30 26" fill="none" xmlns="http://www.w3.org/2000/svg">
<path d="M15 25.9729C14.8482 25.9729 14.6965 25.9337 14.5606 25.8552C14.413 25.77 10.9049 23.7331 7.3465 20.6641C5.23748 18.8452 3.55397 17.0411 2.34284 15.302C0.77558 13.0517 -0.0125634 10.8871 0.000151411 8.8684C0.0150342 6.51938 0.85638 4.31028 2.36938 2.64798C3.90794 0.957674 5.96117 0.0268555 8.15099 0.0268555C10.9575 0.0268555 13.5233 1.59892 15.0001 4.08927C16.4768 1.59898 19.0427 0.0268555 21.8491 0.0268555C23.918 0.0268555 25.8918 0.866737 27.4073 2.39181C29.0704 4.06542 30.0153 6.43014 29.9999 8.87953C29.9871 10.8947 29.1842 13.056 27.6135 15.3033C26.3986 17.0415 24.7174 18.8447 22.6166 20.6631C19.0713 23.7318 15.5884 25.7686 15.4419 25.8538C15.3077 25.9318 15.1552 25.9729 15 25.9729Z" fill="#9E9E9E"/>
</svg>
