<svg width="100" height="100" viewBox="0 0 100 100" fill="none" xmlns="http://www.w3.org/2000/svg">
<path d="M27.8204 48.2288C27.8204 48.2288 48.1651 39.66 55.221 36.6427C57.9259 35.4359 67.0986 31.5737 67.0986 31.5737C67.0986 31.5737 71.3322 29.8842 70.9794 33.9875C70.8617 35.6772 69.9209 41.5909 68.9802 47.9875C67.5689 57.0392 66.0401 66.9356 66.0401 66.9356C66.0401 66.9356 65.805 69.7115 63.8058 70.1943C61.8067 70.677 58.5137 68.5047 57.9259 68.0218C57.4553 67.6599 49.1059 62.2288 46.0483 59.5736C45.2251 58.8495 44.2843 57.4013 46.1658 55.7116C50.3995 51.7288 55.4562 46.7806 58.5137 43.6427C59.925 42.1944 61.3361 38.8151 55.4562 42.9185C47.1067 48.8323 38.8748 54.384 38.8748 54.384C38.8748 54.384 36.9931 55.5908 33.4652 54.5046C29.9371 53.4186 25.8211 51.9702 25.8211 51.9702C25.8211 51.9702 22.9989 50.1599 27.8204 48.2288Z" fill="#9E13CF"/>
</svg>
