<svg width="100" height="100" viewBox="0 0 100 100" fill="none" xmlns="http://www.w3.org/2000/svg">
<path fill-rule="evenodd" clip-rule="evenodd" d="M79.1783 35.6014C79.6009 34.2795 79.1783 33.3081 77.167 33.3081H70.5162C68.8252 33.3081 68.0456 34.1472 67.6227 35.0725C67.6227 35.0725 64.2406 42.8059 59.4493 47.8292C57.8992 49.2832 57.1946 49.7459 56.349 49.7459C55.9263 49.7459 55.3143 49.2832 55.3143 47.9614V35.6014C55.3143 34.0151 54.8236 33.3081 53.4142 33.3081H42.963C41.9062 33.3081 41.2707 34.0444 41.2707 34.7421C41.2707 36.246 43.6662 36.5928 43.9131 40.823V50.0104C43.9131 52.0247 43.5253 52.3899 42.6798 52.3899C40.4251 52.3899 34.9407 44.622 31.6879 35.7336C31.0505 34.006 30.4111 33.3081 28.7113 33.3081H22.0606C20.1603 33.3081 19.7803 34.1472 19.7803 35.0725C19.7803 36.725 22.035 44.921 30.2788 55.7607C35.7746 63.1634 43.5179 67.1762 50.5639 67.1762C54.7915 67.1762 55.3145 66.285 55.3145 64.7498V59.1548C55.3145 57.3723 55.715 57.0166 57.0537 57.0166C58.0401 57.0166 59.7312 57.4792 63.677 61.0484C68.1864 65.2786 68.9299 67.1762 71.4664 67.1762H78.1171C80.0174 67.1762 80.9675 66.285 80.4194 64.5261C79.8196 62.7731 77.6666 60.2298 74.8097 57.2148C73.2595 55.4964 70.9344 53.6457 70.2297 52.7202C69.2433 51.5306 69.5252 51.0017 70.2297 49.9443C70.2297 49.9443 78.3327 39.2367 79.1783 35.6014Z" fill="#9E13CF"/>
</svg>
