<svg width="100" height="100" viewBox="0 0 100 100" fill="none" xmlns="http://www.w3.org/2000/svg">
<path d="M77.8131 36.2457C77.1602 33.7912 75.2288 31.8548 72.7714 31.1912C68.3282 30.0002 50.501 30.0002 50.501 30.0002C50.501 30.0002 32.6828 30.0002 28.2305 31.1912C25.7822 31.8457 23.8508 33.7821 23.1889 36.2457C22.001 40.7002 22.001 50.0002 22.001 50.0002C22.001 50.0002 22.001 59.3002 23.1889 63.7548C23.8417 66.2093 25.7732 68.1457 28.2305 68.8093C32.6828 70.0002 50.501 70.0002 50.501 70.0002C50.501 70.0002 68.3282 70.0002 72.7714 68.8093C75.2197 68.1548 77.1512 66.2184 77.8131 63.7548C79.001 59.3002 79.001 50.0002 79.001 50.0002C79.001 50.0002 79.001 40.7002 77.8131 36.2457Z" fill="#9E13CF"/>
<path d="M44.8064 58.573L59.6141 50.0002L44.8064 41.4275V58.573Z" fill="black"/>
</svg>
